<svg fill="#000000" width="201px" height="201px" viewBox="-102.4 -102.4 1228.80 1228.80" xmlns="http://www.w3.org/2000/svg" stroke="#000000" stroke-width="18.432"><g id="SVGRepo_bgCarrier" stroke-width="0"></g><g id="SVGRepo_tracerCarrier" stroke-linecap="round" stroke-linejoin="round" stroke="#CCCCCC" stroke-width="6.144"></g><g id="SVGRepo_iconCarrier"><path d="M723.129 117.952c62.888 61.876 62.888 162.342-.001 224.219L549.671 512.812c-21.66 21.304-56.623 21.304-78.285-.002L297.93 342.17c-62.888-61.876-62.888-162.342.001-224.219 58.123-57.177 149.594-61.362 212.598-12.554 63.004-48.808 154.475-44.624 212.6 12.555zm-226.962 29.199c-46.773-46.012-122.738-46.012-169.51-.001-46.578 45.828-46.578 119.996-.001 165.823L500.11 483.611c5.721 5.627 15.118 5.627 20.838.002l173.454-170.638c46.578-45.828 46.578-119.996.001-165.822-46.773-46.012-122.738-46.012-169.512 0-7.97 7.84-20.755 7.84-28.725 0zm-99.262 436.89H212.538l-85.025-85.025c-29.154-29.154-76.435-29.154-105.589 0-29.216 29.277-29.196 76.506-.051 105.65L128.83 711.623c14.303 14.303 33.476 21.951 53.324 21.801.121.009 158.687.028 158.687.028v195.686c0 11.311 9.169 20.48 20.48 20.48s20.48-9.169 20.48-20.48V712.972c0-11.311-9.169-20.48-20.48-20.48H182.757c-9.803.09-18.473-3.341-24.964-9.833L50.836 575.702c-13.168-13.168-13.168-34.502-.004-47.659 13.269-13.223 34.577-13.205 47.718-.065l91.023 91.023a20.48 20.48 0 0014.482 5.998h191.947c.288.022 19.652.092 19.652.092 18.672 0 33.812 15.141 33.812 33.812v270.234c0 11.311 9.169 20.48 20.48 20.48s20.48-9.169 20.48-20.48V658.903c0-41.294-33.479-74.772-74.772-74.772h-16.73c-.401-.028-.947-.05-2.019-.092zm210.439.093c-41.294 0-74.772 33.479-74.772 74.772V929.14c0 11.311 9.169 20.48 20.48 20.48s20.48-9.169 20.48-20.48V658.906c0-18.672 15.141-33.812 33.812-33.812h17.869l1.54-.092h192.191a20.484 20.484 0 0014.482-5.998l91.023-91.023c13.141-13.141 34.449-13.158 47.611-.052 13.271 13.275 13.271 34.609.103 47.776L865.206 682.662c-6.491 6.491-15.161 9.922-24.244 9.804-3.654.229-3.654.229-4.534.438.49-.144.49-.144 4.041-.409h-178.79c-11.311 0-20.48 9.169-20.48 20.48v216.166c0 11.311 9.169 20.48 20.48 20.48s20.48-9.169 20.48-20.48V733.455h158.31c20.059.188 39.336-7.465 53.701-21.829l106.957-106.957c29.144-29.144 29.165-76.373.057-105.532-29.262-29.272-76.543-29.272-105.697-.118l-85.025 85.025H626.095c-1.206.048-1.747.069-2.164.103l-16.586-.011z"></path></g></svg>